<svg data-name="002-trousers" xmlns="http://www.w3.org/2000/svg" width="13.524" height="23.136"><g data-name="Group 15"><path data-name="Path 19" d="M13.523 22.84L12.859.279A.287.287 0 0012.572 0H.942a.287.287 0 00-.287.279L0 22.84a.287.287 0 00.279.3h3.5a.288.288 0 00.281-.228L6.764 9.9l2.708 13.01a.288.288 0 00.281.228h3.483a.287.287 0 00.288-.287l-.001-.011zm-1.074-17c-.687-.279-1.029-2.283-1.076-3.872h.962zM10.475.577h1.818l.025.82h-1.843zm-3.424 0h2.851v.814L7.415 1.4h-.364zm.076 1.4V5.83a1.017 1.017 0 01-.727-.972V1.972zM3.508.577h2.959v.814l-.355.009h-2.6zm-2.274 0h1.7v.814H1.209zm-.042 1.389h.962c-.047 1.589-.389 3.593-1.076 3.872zm8.8 20.594L7.042 8.429a.287.287 0 00-.562 0l-2.938 14.13H.581l.476-16.125c1.42-.211 1.638-3.321 1.668-4.47h3.1v2.893a1.592 1.592 0 001.589 1.589.287.287 0 00.287-.287v-4.2h3.094c.032 1.15.249 4.27 1.674 4.47l.469 16.125z" fill="#858585"/></g></svg>