<svg xmlns="http://www.w3.org/2000/svg" width="31.213" height="23.136"><g data-name="Group 16"><path data-name="Path 20" d="M31.091 19.169a4.042 4.042 0 00-2.291-2.242 17.87 17.87 0 01-5.326-4.395l.253-.156a.463.463 0 10-.485-.789l-.379.233q-.333-.4-.651-.8l.377-.245a.463.463 0 00-.5-.777l-.436.283q-.366-.493-.7-.982l.324-.2a.463.463 0 10-.489-.787l-.35.217a21.9 21.9 0 01-1.475-2.615 2.258 2.258 0 01.387-2.3.463.463 0 00-.655-.655 3.007 3.007 0 00-.728 2.821 16.5 16.5 0 01-2.765.535c-2.775.278-4.139-.445-4.794-1.1A8.138 8.138 0 017.872.441a.463.463 0 00-.83-.26L.1 9.213a.463.463 0 00.116.671c.13.084 13.006 8.406 16.635 10.61a20.681 20.681 0 0010.04 2.643 11.871 11.871 0 002.472-.23.463.463 0 00.283-.19l1.44-2.094a.468.468 0 00.03-.052v-.01a.461.461 0 00.021-.052v-.017a2.345 2.345 0 00-.046-1.323zm-20.013-5.315c3.544 2.266 5.97 3.8 7.209 4.55a20.681 20.681 0 0010.04 2.643c.489 0 .953-.022 1.387-.065l-.729 1.06a16.009 16.009 0 01-5.484-.138 18.4 18.4 0 01-6.173-2.2C14.083 17.732 3.4 10.839 1.137 9.378l.986-1.284c3.3 2.131 5.853 3.769 7.428 4.778a.463.463 0 00.5-.78L7.4 10.393a6.107 6.107 0 00.739-2.919 6.135 6.135 0 00-1.406-3.906.463.463 0 10-.713.591 5.206 5.206 0 011.193 3.315 5.184 5.184 0 01-.6 2.416 3731.1 3731.1 0 01-3.924-2.536l4.448-5.791a9.821 9.821 0 002.607 4.3c2.356 2.356 7.127 1.2 8.538.782a24.164 24.164 0 001.363 2.359l-1.574.978a.463.463 0 10.489.787l1.6-.994c.229.333.467.667.713 1l-1.251.813a.463.463 0 10.5.777l1.307-.85q.311.4.632.788l-1.163.714a.463.463 0 10.485.789l1.285-.789a17.993 17.993 0 005.74 4.746c1.677.767 1.882 1.743 1.875 2.2a16.3 16.3 0 01-5.348-.162 18.405 18.405 0 01-6.173-2.2c-1.233-.75-3.653-2.277-7.191-4.539a.463.463 0 10-.5.78z" fill="#858585"/></g></svg>