<svg data-name="004-suit" xmlns="http://www.w3.org/2000/svg" width="20.397" height="23.136"><path data-name="Path 21" d="M20.059 9.227a.339.339 0 00.339-.339V5.556a1.252 1.252 0 00-.846-1.184l-4.22-1.445V1.434c0-.487-.545-.849-1.667-1.105a18.387 18.387 0 00-6.929 0C5.614.585 5.069.947 5.069 1.434v1.493L.846 4.372a1.252 1.252 0 00-.85 1.184v10.516a.339.339 0 10.678 0V5.556a.574.574 0 01.388-.543l.8-.273 2.875 5.479-.537 4.964a.339.339 0 00.065.239l5.256 7.036H1.252a.575.575 0 01-.574-.574v-4.23a.339.339 0 10-.678 0v4.23a1.253 1.253 0 001.252 1.252h17.894a1.253 1.253 0 001.25-1.252V10.479a.339.339 0 10-.678 0v11.405a.575.575 0 01-.574.574h-8.269l5.256-7.036a.339.339 0 00.065-.239l-.537-4.964 2.876-5.479.8.273a.574.574 0 01.388.543v3.332a.339.339 0 00.339.339zM14.653 3.02l-2.294 2.1-1.529-2.26a15.2 15.2 0 002.833-.32 4.943 4.943 0 00.989-.319zm-3.978 3.1h-.953l-.836-1.045 1.31-1.94 1.312 1.94zm-2.637-1l-2.294-2.1v-.8a4.94 4.94 0 00.989.319 15.2 15.2 0 002.833.32zm-.168.765a.339.339 0 00.229.089h.04a.339.339 0 00.241-.147l.109-.161.705.879L7.959 12.2 5.996 4.172zm1.962.911h.732l1.507 6.9-1.875 7.673-1.87-7.669zm2.605 5.4l-1.234-5.655.705-.879.109.161a.339.339 0 00.241.147h.04a.339.339 0 00.229-.089l1.869-1.709zM7.06.952a18.09 18.09 0 016.277 0 2.773 2.773 0 011.3.482 2.773 2.773 0 01-1.3.482 16.275 16.275 0 01-3.138.274 16.275 16.275 0 01-3.138-.274 2.773 2.773 0 01-1.3-.482A2.773 2.773 0 017.06.952zM5.386 10L2.512 4.518l2.653-.908 4.31 17.652-4.585-6.138.533-4.934a.339.339 0 00-.037-.19zm9.625 0a.339.339 0 00-.037.194l.533 4.934-4.585 6.138L15.233 3.61l2.653.908z" fill="#858585"/></svg>