<svg xmlns="http://www.w3.org/2000/svg" width="20.88" height="31.32"><g data-name="100---Luggage" fill="#858585"><path d="M17.878 3.132h-3.784V2.61A2.613 2.613 0 0011.484 0H9.4a2.613 2.613 0 00-2.61 2.61v.522H3A3.017 3.017 0 000 6.16v19.522a3.019 3.019 0 002.61 3v.814a1.827 1.827 0 103.654 0v-.786h8.352v.783a1.827 1.827 0 003.654 0v-.812a3.019 3.019 0 002.61-3V6.16a3.017 3.017 0 00-3-3.028zM7.83 2.61A1.566 1.566 0 019.4 1.044h2.088A1.566 1.566 0 0113.05 2.61v.522H7.83zM3 4.176h14.878a1.972 1.972 0 011.958 1.984v2.192H1.044V6.16A1.972 1.972 0 013 4.176zm2.22 25.317a.783.783 0 11-1.566 0v-.783H5.22zm10.962-1.827H4.7v-9.918a1.566 1.566 0 011.566-1.566h8.352a1.566 1.566 0 011.566 1.566zm1.044 1.827a.783.783 0 11-1.566 0v-.783h1.566zm.652-1.827h-.652v-9.918a2.613 2.613 0 00-2.61-2.61H6.264a2.613 2.613 0 00-2.61 2.61v9.918H3a1.972 1.972 0 01-1.957-1.984V9.4h16.7v1.04a.522.522 0 101.044 0V9.4h1.044v16.282a1.972 1.972 0 01-1.957 1.984z"/><path data-name="Shape" d="M8.874 6.786h3.132a.522.522 0 100-1.044H8.874a.522.522 0 100 1.044zm5.742 10.962H6.264a.522.522 0 100 1.044h6.786v1.044a.522.522 0 101.044 0v-1.044h.522a.522.522 0 100-1.044zM4.176 10.44H2.61a.522.522 0 00-.522.522v1.566a.522.522 0 101.044 0v-1.044h1.044a.522.522 0 100-1.044z"/></g></svg>